<svg id="Layer_1" data-name="Layer 1" xmlns="http://www.w3.org/2000/svg" viewBox="0 0 583.7 651.17"><defs><style>.cls-1,.cls-11,.cls-7{fill:#2891cf;}.cls-1,.cls-11,.cls-13,.cls-2,.cls-3,.cls-8,.cls-9{stroke:#000;}.cls-1,.cls-11,.cls-13,.cls-2,.cls-3,.cls-6,.cls-8,.cls-9{stroke-miterlimit:10;}.cls-1,.cls-2{stroke-width:3.47px;}.cls-2,.cls-3,.cls-4,.cls-8,.cls-9{fill:#fff;}.cls-3{stroke-width:2px;}.cls-5{fill:#2f1a1c;}.cls-6{fill:#eee823;stroke:#231f20;stroke-width:0.42px;}.cls-8{stroke-width:0.66px;}.cls-9{stroke-width:0.95px;}.cls-10{fill:#231f20;}.cls-11{stroke-width:1.9px;}.cls-12,.cls-13{fill:#efebed;}.cls-13{stroke-width:2.35px;}</style></defs><title>LOGO SMANUNGGAL</title><path class="cls-1" d="M107.5,654.88c-4.19-4.87-36.62-96.83-61.73-141.72S7.06,295.7,1.31,276.77L0,268.39s30.6-16.77,74.8-74.92,79-75.19,132.61-104.13S294,37.41,294,37.41s39.23,33,63,44.09S432.6,121,439.92,127.74,579.85,277.85,579.85,277.85s-13.34,42.14-17,87.2S551.6,472.59,524.66,519.92,464.24,660,464.24,660s-31.12-2.43-87.35,12.44-58.07,9.2-76.11,11.9S224.41,671.11,180.21,666,107.5,654.88,107.5,654.88Z" transform="translate(1.9 -35.23)"/><path class="cls-2" d="M120.71,634.65c-3.9-4.54-34.1-90.16-57.48-132s-36-202.48-41.4-220.11l-1.22-7.8S49.11,259.15,90.27,205s73.54-70,123.47-97,80.61-48.36,80.61-48.36S330.88,90.42,353,100.74s70.38,36.77,77.2,43.07,130.3,139.77,130.3,139.77-12.42,39.24-15.83,81.19S534.23,464.91,509.15,509s-56.26,130.45-56.26,130.45-29-2.26-81.34,11.59-54.06,8.56-70.87,11.08S229.57,649.76,188.41,645,120.71,634.65,120.71,634.65Z" transform="translate(1.9 -35.23)"/><ellipse class="cls-1" cx="288.65" cy="338.19" rx="172.27" ry="178.15"/><path class="cls-3" d="M215,456s.51,16,5.84,21.67,5.72,10.77,5.72,10.77-3.43.39-5.78-3.68a50.88,50.88,0,0,0-8.19-11.16c-3.43-3.42.38-15.23-4.32-23.38s-13.08-12.34-13.08-12.34-3.81,8.8-1.78,14.31,8.89,16.68,8.89,16.68,0,3-2.16,1.58-13.84-15.63-9.39-35.72-8.39-26.93-8.39-26.93-6,7.75-5.33,16.68,7.49,21.93,7.49,21.93-14.22-16.81-14-23.37,10.54-16.68,10.67-29.42-1.27-16.68-1.27-16.68-12.32,7.62-14,15.89-1,24.82-1,24.82-1.65.79-3.3-2.1-2.66-19.17.89-24.69,14.23-14.57,15.5-25.21a133.3,133.3,0,0,0,.88-19.44s-8.63,6.17-12.19,13.79-8.13,20.49-8.13,20.49-.88-10.11,0-13.53.89-15.36,8.89-19,17.78-12.87,19.94-19.44a43.46,43.46,0,0,0,1.91-13.39s-15.7,7-19.31,12.74c-4.69,7.48-6.22,12.87-8.12,10.37s4.44-15.63,15.24-21,20.06-12.48,22.6-17.6,1-6,1-6-8-.66-12.7,2-8.13,10.37-11.43,7.88,12.7-16.94,20.57-15.76,12.19-.92,17.65-6.57,11.69-12.21,6.1-13.13-12.7,4.47-17.65,4.6-6.86-2.89,1-4.07,17-3.42,22.23-8.67,10.41-20.36,7.62-21.28-17.53.66-23.37,6.83S197.71,267.77,195.93,267s4.19-19.7,2-21.54-12.31,1.71-15.87,11.43-4.7,13.92-4.7,22.85.64,14.84-1.27,13.39.25-23-2.41-24.55-13.21,9.19-12.83,23.5,3.94,11.69,3.94,18.52-.38,13.13-2.42,14.18-.5-12.21-2.15-15.49-1.78-11.3-4.7-11.69S145,314.13,145.9,320.82s8,15.9,9.65,21.41,2.28,12.48.25,11.82-7.49-18.12-11.17-20.09-7.5,21.54-4.58,28,12.19,9.32,12.7,14.05,6,20.62,4.7,28.5-1.9-13.53-6.09-19.83-6.48-12.48-9.78-13.26-9.82,22.85-2.56,31.25,26.94,21.54,28.34,26.27-16.51-11.82-21.59-12.48-6.1,10.64.25,19,6.73,8.67,15.88,9.72,17.14,3.42,22.48,10,7.11,11.3,5.58,10.9S178.15,450.18,165.58,449s-14.35.53-5.59,11.43,13,10,25.34,12.21,18.22,2.1,22.79,5.91,2.29,5.25-8.38,1.44-20.44-.26-20.19.14-.25,13.79,15.62,17.07,14.35-4.47,20.32-3.81,14.48-.39,20.45,4.07,4.57-2.76,8.5-.26,37.09,18.12,41.79,18,0-5.07-17.8-12.69-18.2-8.91-23.58-10.69-4.09,1.84-5.61-.13-.89-22.32-6-26.66S215,456,215,456Z" transform="translate(1.9 -35.23)"/><path class="cls-4" d="M393.64,438.65c-4.31-1.45-11.23-4.26-8.13-10.87s6.05-1.27,8.41-4.13.63-6.36,2.9-9.19,9.17-2.89,13.07-.28,3.41-5.45,9.63-3.31,8.92,5.43,10.43,9.28,6.54,1.62,6.52,8.31-4.87,12.48-7.74,13.57.8,5.73-2.76,8.09-11.15,3.2-13.94-2.76S393.64,438.65,393.64,438.65Z" transform="translate(1.9 -35.23)"/><path class="cls-5" d="M399.73,449.79c2.47-3.06,4.65-7.19,6.79-6.67s3.65,4.17,6.3,1,1-7.24-1.36-7.7-.28-5.17-2.66-5.77-5.29,2.91-7.26,3.15-3.19-1.81-5.25.54,1.17,2.64,1,4.72S397.26,452.85,399.73,449.79Z" transform="translate(1.9 -35.23)"/><path class="cls-4" d="M370.11,458.87c-3.19-2.84-8.14-7.82-3.19-12.33s5.62,1.16,8.63-.42,2.75-5.21,5.67-6.79,8.87.93,11.3,4.6,4.81-3.39,9.4.75,5.76,7.95,5.72,11.82,5,3.81,2.7,9.53-8.51,8.89-11.34,8.75-1.31,5.21-5.18,5.91-10.66-1.39-11-7.54S370.11,458.87,370.11,458.87Z" transform="translate(1.9 -35.23)"/><path class="cls-5" d="M371.46,470.67c3.18-1.7,6.48-4.43,8.13-3.19s1.68,4.93,5.07,3.16,3.36-5.83,1.5-7.1,1.56-4.53-.27-5.93-5.55.53-7.32,0-2.1-2.73-4.68-1.49.09,2.7-.75,4.44-9.78,6.73-17.52,10S368.28,472.38,371.46,470.67Z" transform="translate(1.9 -35.23)"/><path class="cls-4" d="M408.69,411.55c-4.53,0-11.95-.47-11-7.75s5.38-3.13,6.77-6.61-1.3-6.25,0-9.66,7.87-5.67,12.35-4.43,1.63-6.27,8.18-6.22,10.11,2.32,12.69,5.51,6.7-.54,8.68,5.83-.92,13.43-3.33,15.37,2.47,5.2-.22,8.58-9.65,6.6-14.08,1.81S408.69,411.55,408.69,411.55Z" transform="translate(1.9 -35.23)"/><path class="cls-5" d="M422.27,411.71c2.19-.19,4.72,2.8,6.29-1.1s-1.21-7.2-3.59-6.89-1.8-4.83-4.24-4.64-4.18,4.46-6,5.31-3.57-.71-4.83,2.18,1.9,2.14,2.39,4.16S420.08,411.89,422.27,411.71Z" transform="translate(1.9 -35.23)"/><path class="cls-4" d="M414.42,384.3c-4.47.81-11.86,1.66-12.1-5.68s4.78-4.05,5.56-7.72-2.31-5.92-1.59-9.52,6.81-7,11.43-6.57.55-6.46,7-7.58,10.34.48,13.42,3.16,6.51-1.73,9.51,4.2S449,368,447,370.32s3.3,4.68,1.22,8.49-8.41,8.22-13.57,4.29S414.42,384.3,414.42,384.3Z" transform="translate(1.9 -35.23)"/><path class="cls-5" d="M427.82,382c2.13-.57,5.12,1.93,6-2.19s-2.39-6.88-4.69-6.15-2.58-4.44-4.95-3.82-3.37,5.14-5,6.3-3.63-.06-4.4,3,2.24,1.77,3.06,3.68S425.7,382.6,427.82,382Z" transform="translate(1.9 -35.23)"/><path class="cls-4" d="M413.72,353.19c-3.71,1.24-9.91,2.88-11-3.34s3.6-4,3.85-7.27-2.66-4.76-2.46-7.92,5-6.8,9-7-.27-5.58,5.12-7.33,8.86-.87,11.79,1,5.36-2.28,8.6,2.4,2.69,11.24,1.21,13.49,3.36,3.59,2,7.09-6.22,8.05-11.06,5.34S413.72,353.19,413.72,353.19Z" transform="translate(1.9 -35.23)"/><path class="cls-5" d="M424.88,349.6c1.75-.75,4.59,1,4.87-2.62s-2.84-5.56-4.71-4.66-2.71-3.46-4.66-2.64-2.28,4.79-3.53,6-3.11.39-3.4,3.1,2.1,1.23,3,2.76S423.14,350.35,424.88,349.6Z" transform="translate(1.9 -35.23)"/><path class="cls-4" d="M405.76,332.26c-2.72,2.9-7.45,7.35-11.21,2.35s1.36-5.31.12-8.28-4.5-2.93-5.75-5.81,1.34-8.43,4.76-10.54-2.76-4.8,1.21-9,7.44-5,10.89-4.79,3.7-4.6,8.69-2,7.46,8.65,7.18,11.35,4.58,1.54,5,5.29-1.86,10.12-7.37,10.07S405.76,332.26,405.76,332.26Z" transform="translate(1.9 -35.23)"/><path class="cls-5" d="M414,323.69c1.21-1.51,4.51-1.33,3.12-4.67s-5-3.55-6.26-1.84-4-1.75-5.32-.08.16,5.34-.42,7-2.56,1.85-1.6,4.39,2.42.07,3.93,1S412.8,325.19,414,323.69Z" transform="translate(1.9 -35.23)"/><path class="cls-4" d="M391.54,306.39c-2.72,2.89-7.45,7.34-11.21,2.35s1.36-5.31.12-8.29-4.5-2.92-5.75-5.81,1.34-8.42,4.76-10.54-2.76-4.79,1.21-9,7.44-5,10.89-4.79,3.7-4.6,8.69-2,7.46,8.64,7.18,11.35,4.58,1.54,5,5.28-1.86,10.12-7.37,10.08S391.54,306.39,391.54,306.39Z" transform="translate(1.9 -35.23)"/><path class="cls-5" d="M399.79,297.81c1.2-1.5,4.5-1.32,3.11-4.66s-5-3.55-6.26-1.84-4-1.75-5.32-.08.16,5.33-.42,7-2.56,1.85-1.6,4.39,2.42.07,3.93,1S398.58,299.32,399.79,297.81Z" transform="translate(1.9 -35.23)"/><path class="cls-4" d="M371.26,287.88c-2.45,3.14-6.77,8-10.95,3.41s.88-5.42-.62-8.26-4.75-2.48-6.24-5.24.58-8.52,3.8-11-3.18-4.51.4-9,7-5.74,10.43-5.8,3.28-4.94,8.47-2.86,8.2,7.9,8.15,10.62,4.71,1.1,5.44,4.79-.95,10.25-6.44,10.72S371.26,287.88,371.26,287.88Z" transform="translate(1.9 -35.23)"/><path class="cls-5" d="M378.71,278.56c1.06-1.61,4.37-1.75,2.69-4.94s-5.32-3.06-6.41-1.24-4.1-1.37-5.3.43.63,5.3.21,7-2.39,2.09-1.2,4.52,2.41-.16,4,.59S377.64,280.18,378.71,278.56Z" transform="translate(1.9 -35.23)"/><path class="cls-4" d="M343.31,477.48c-3.2-2.84-8.15-7.82-3.2-12.33s5.63,1.16,8.64-.42,2.75-5.21,5.67-6.79,8.87.93,11.29,4.6,4.82-3.39,9.41.75,5.76,8,5.71,11.82,5,3.81,2.7,9.54-8.5,8.88-11.34,8.74-1.3,5.22-5.17,5.91-10.66-1.39-11-7.53S343.31,477.48,343.31,477.48Z" transform="translate(1.9 -35.23)"/><path class="cls-5" d="M284.63,514c2.59,5.08,14.67-.19,29.61-8.47s27.24-14.55,30.42-16.26,6.48-4.43,8.13-3.19,1.68,4.93,5.07,3.16,3.36-5.83,1.5-7.1,1.56-4.53-.27-5.93-5.55.53-7.32,0-2.1-2.73-4.68-1.48.09,2.69-.75,4.43-9.78,6.73-17.52,10-10.17,5.86-18.36,9.63S282.07,509,284.63,514Z" transform="translate(1.9 -35.23)"/><rect class="cls-6" x="284.48" y="472.37" width="2.31" height="10.3" rx="1.15" ry="1.15"/><rect class="cls-6" x="287.8" y="472.37" width="2.31" height="10.3" rx="1.15" ry="1.15"/><rect class="cls-6" x="290.64" y="472.37" width="2.31" height="10.3" rx="1.15" ry="1.15"/><path class="cls-4" d="M285.76,446.11c1-9.55,4.18-17.59,11.57-20.11s19.05-1.3,29.54,1,20.61,3.12,29.16,7.44,6.06,1.77,7.09-4.12,14.26-102.65,15-104.93a12,12,0,0,0,.23-5.19,40.35,40.35,0,0,1-16.81-.84c-9.33-2.41-25.92-8.44-34.47-9.91s-38.23,2.68-38.23,2.68-26.43-6.43-41.46-4.42-27.22,6-34.73,7.23-19.44,1.34-19.44,1.34l12,114.71a177.87,177.87,0,0,1,40-6.57c23.07-1.21,25.53-1.61,30.45.94S285.76,446.11,285.76,446.11Z" transform="translate(1.9 -35.23)"/><path class="cls-7" d="M209,423.46l1.17,2.89s25.12-5.57,34.41-6.45,15.38-1.38,21.06-1.07c6.14.34,15.62,7.52,15.62,7.52s-.65-11.21-21.82-11.15S209,423.46,209,423.46Z" transform="translate(1.9 -35.23)"/><path class="cls-7" d="M356.93,429.87l1.26-2.82s-31.06-11-47-10.47-20.93,7.15-20.93,7.15S303.08,419.2,311,420s18.6,2,26.78,4.23S356.93,429.87,356.93,429.87Z" transform="translate(1.9 -35.23)"/><path class="cls-7" d="M198.21,321.63s22.07-1.08,34.53-4.7,37.65-6.18,47.78-.54,6.62,8.32,2.73,16.78.65,86.87.65,86.87-1.56-9.53-29.35-8.86S209,420,209,420Z" transform="translate(1.9 -35.23)"/><path class="cls-7" d="M289.65,417,291,319s14.94-4,28.76-2.19S348,325.68,359.12,327l11.08,1.29-13.45,93.41s-23.77-9-41.95-10.38S289.65,417,289.65,417Z" transform="translate(1.9 -35.23)"/><path class="cls-8" d="M285.86,323c8.48,0,15.89-7.88,14.23-13.75s-8.37-18.76-8.37-18.76.66,8.11-.1,10.2c-.69,1.93-2.56,6.1-3.91,6.05s3.72-2.73,3.62-7.3-.22-10.2-.22-10.2l-4-5.08S280,289.9,276.34,296s-4.26,12.65-3.13,16.5,5.77,8.92,8.41,9.87A9.07,9.07,0,0,0,285.86,323Z" transform="translate(1.9 -35.23)"/><path class="cls-9" d="M272.71,308c.5,5.54,2.3,18.37,10.76,19.3s16.11-3.67,17.11-9.93-1.65-9.11-2-11.64-2.91,7.65-4,8.79-1.5-6.36-.8-7-5.2,7.14-5.2,7.14-6-2.06-7-7.19-.3,9.11-.35,10-3-5.28-4.85-7.66S272.71,308,272.71,308Z" transform="translate(1.9 -35.23)"/><path class="cls-10" d="M98.74,472.83c1.23,2.37,1.87,3.55,3.17,5.88l15.91-9.55a3.19,3.19,0,0,1,2.41-.57,2.54,2.54,0,0,1,1.63,1.28,2.71,2.71,0,0,1,.34,2.11,3.37,3.37,0,0,1-1.6,1.94L105,484c1.39,2.29,2.1,3.42,3.56,5.67a4.05,4.05,0,0,1,.81,2.3,1.93,1.93,0,0,1-.83,1.54,1.74,1.74,0,0,1-1.73.24A3.88,3.88,0,0,1,105,492.1a168.17,168.17,0,0,1-10-17.2,4.06,4.06,0,0,1-.57-2.43,1.9,1.9,0,0,1,1-1.43,1.76,1.76,0,0,1,1.71,0A3.91,3.91,0,0,1,98.74,472.83Z" transform="translate(1.9 -35.23)"/><path class="cls-10" d="M106.22,444.65c-1,1-1.5,1.45-2.49,2.43,1.62,4.21,2.49,6.29,4.37,10.39,1.4-.09,2.09-.15,3.48-.26a11.23,11.23,0,0,1,2.86,0,2.09,2.09,0,0,1,1.35,1.26,2.78,2.78,0,0,1,.17,1.95,2.25,2.25,0,0,1-1.07,1.48,3.35,3.35,0,0,1-1,.34,15.89,15.89,0,0,1-1.64.18c-7.1.61-10.69.78-17.92.86l-1.87,0a8.21,8.21,0,0,1-1.9-.2,3.84,3.84,0,0,1-1.53-.83,4.87,4.87,0,0,1-1.22-1.82,5,5,0,0,1-.46-2.17,4.08,4.08,0,0,1,.44-1.72,6.79,6.79,0,0,1,.94-1.37c.36-.42.85-1,1.48-1.62,4.92-5.45,7.46-8.07,12.68-13.06a7.88,7.88,0,0,1,2.28-1.73,2.18,2.18,0,0,1,1.78.18,2.57,2.57,0,0,1,1.3,1.51,2.47,2.47,0,0,1,.17,1.1,2.34,2.34,0,0,1-.28.94,6.27,6.27,0,0,1-.83,1.05ZM104,457.8c-1.39-3.09-2-4.65-3.29-7.8-3.24,3.22-4.84,4.88-8,8.27C97.27,458.18,99.52,458.08,104,457.8Z" transform="translate(1.9 -35.23)"/><path class="cls-10" d="M82.4,435.71l8.52-2.57a147,147,0,0,1-13-8.75,9.55,9.55,0,0,1-1.41-1.2,3.24,3.24,0,0,1-.69-1.54,3.37,3.37,0,0,1,.21-2.26,2,2,0,0,1,1.4-1.13,3,3,0,0,1,2.44.91c2.89,2.43,4.35,3.59,7.3,5.81,3.25-4.23,4.93-6.26,8.39-10.15a12.24,12.24,0,0,1,1.61-1.58,3.42,3.42,0,0,1,1.47-.7,1.89,1.89,0,0,1,1.57.41,2.76,2.76,0,0,1,1,1.75,3.41,3.41,0,0,1-.08,1.9,4.3,4.3,0,0,1-.94,1.45L99,419.23c-3.09,3.4-4.59,5.16-7.52,8.8,2,1.41,3,2.09,5.1,3.41l5-1.52A3.18,3.18,0,0,1,104,430a2.64,2.64,0,0,1,1.29,1.66,2.79,2.79,0,0,1,.06,1.38,2.53,2.53,0,0,1-.6,1.24,2.89,2.89,0,0,1-1,.65c-.39.18-1,.39-1.74.65l-17.9,6.05a3,3,0,0,1-2.46,0,3.08,3.08,0,0,1-1.4-1.92,3.3,3.3,0,0,1,.09-2.41A3,3,0,0,1,82.4,435.71Z" transform="translate(1.9 -35.23)"/><path class="cls-10" d="M93.56,388.78c-6,2.08-9,3.2-14.88,5.59,6.19,1.49,9.3,2.16,15.52,3.33,1.17.23,2,.41,2.54.56a3.31,3.31,0,0,1,1.45.91,3.06,3.06,0,0,1,.81,1.9,3.49,3.49,0,0,1-.15,1.69,2.84,2.84,0,0,1-.86,1.18,6.33,6.33,0,0,1-1.43.88l-1.57.7c-6.5,2.81-9.73,4.3-16.13,7.46a8.5,8.5,0,0,1-2.16.84,2,2,0,0,1-1.77-.54,3.1,3.1,0,0,1-1-1.94,2.55,2.55,0,0,1,.55-2.4A8.81,8.81,0,0,1,77,407.55c5.64-2.43,8.48-3.58,14.18-5.76-5.68-1-8.52-1.49-14.19-2.7a19,19,0,0,1-2.49-.66,3.45,3.45,0,0,1-1.54-1.16,4.33,4.33,0,0,1-.8-2.41,4.14,4.14,0,0,1,.47-2.49,3.53,3.53,0,0,1,1.31-1.28,25.22,25.22,0,0,1,2.4-1C81.73,388,84.47,387,90,385.19c-6-1.3-8.92-2-14.84-3.57a12.23,12.23,0,0,1-1.82-.54,2.85,2.85,0,0,1-1.18-.9,2.89,2.89,0,0,1-.51-1.87,3.24,3.24,0,0,1,.7-2.08,2,2,0,0,1,1.68-.81,9.08,9.08,0,0,1,2.25.51c6.78,2.17,10.18,3.16,17,5,1.15.31,2,.56,2.54.76a3.48,3.48,0,0,1,1.42,1,3.78,3.78,0,0,1,.11,4A3.23,3.23,0,0,1,96,387.83C95.55,388.05,94.73,388.36,93.56,388.78Z" transform="translate(1.9 -35.23)"/><path class="cls-10" d="M96.26,354.7c-1.33.33-2,.5-3.33.86-.6,4.53-.83,6.81-1.16,11.35l3.15,1.56a11.67,11.67,0,0,1,2.49,1.46,2.14,2.14,0,0,1,.57,1.78,2.67,2.67,0,0,1-.78,1.79,2.15,2.15,0,0,1-1.64.74A3.46,3.46,0,0,1,94.5,374c-.37-.14-.87-.37-1.52-.68-6.47-3.09-9.67-4.78-16-8.4L75.35,364a8.2,8.2,0,0,1-1.56-1.15,4,4,0,0,1-.94-1.52,5.15,5.15,0,0,1-.19-2.21A5.1,5.1,0,0,1,73.3,357a3.8,3.8,0,0,1,1.2-1.28A6.91,6.91,0,0,1,76,355c.52-.18,1.2-.4,2.06-.67,6.89-2.27,10.35-3.27,17.28-5a7.11,7.11,0,0,1,2.81-.35A2.2,2.2,0,0,1,99.58,350a2.78,2.78,0,0,1,.41,2,2.66,2.66,0,0,1-.38,1.06,2.27,2.27,0,0,1-.7.68,5.57,5.57,0,0,1-1.22.5Zm-8.21,10.4c.27-3.41.44-5.12.86-8.53-4.36,1.17-6.53,1.81-10.88,3.18C82,362,84,363.06,88.05,365.1Z" transform="translate(1.9 -35.23)"/><path class="cls-10" d="M132,255.09a6.38,6.38,0,0,1,1.58,2.14,10,10,0,0,1,.89,3.25,10.82,10.82,0,0,1-.33,4,13.51,13.51,0,0,1-2.1,4.34,19.55,19.55,0,0,1-2.4,2.85,11.07,11.07,0,0,1-2.63,1.88,10.15,10.15,0,0,1-3.07,1,11.94,11.94,0,0,1-3.11.09,13,13,0,0,1-3.16-.71,15.61,15.61,0,0,1-3.11-1.56,13.71,13.71,0,0,1-4-3.76,11.21,11.21,0,0,1-1.82-4.68,12.85,12.85,0,0,1,.33-5.21,16.15,16.15,0,0,1,2.39-5.06,14.43,14.43,0,0,1,4.64-4.39,10,10,0,0,1,4.83-1.47,5.19,5.19,0,0,1,3.44,1,2.2,2.2,0,0,1,.74,1.52,2.77,2.77,0,0,1-1.85,2.74,6.62,6.62,0,0,1-2,0,7.2,7.2,0,0,0-3.73.43,6.94,6.94,0,0,0-2.92,2.53,7.31,7.31,0,0,0-1.3,6.09c.49,2.07,2,3.91,4.31,5.54a11.39,11.39,0,0,0,4.42,2,6.1,6.1,0,0,0,3.7-.43,8,8,0,0,0,4.26-6.33,6.92,6.92,0,0,0-1-3.9,5.19,5.19,0,0,1-.72-1.68,2.08,2.08,0,0,1,.53-1.71,2.3,2.3,0,0,1,1.51-.93A1.93,1.93,0,0,1,132,255.09Z" transform="translate(1.9 -35.23)"/><path class="cls-10" d="M137.84,228.79c-3.63,3.67-5.39,5.56-8.81,9.47l4.45,4.15c3.05-3.49,4.62-5.19,7.85-8.48a2.8,2.8,0,0,1,1.69-1,1.62,1.62,0,0,1,1.38.55,1.87,1.87,0,0,1,.51,1.44,2.94,2.94,0,0,1-1,1.72c-3.17,3.24-4.71,4.9-7.71,8.33l5.15,4.81c3.25-3.71,4.92-5.51,8.38-9a2.66,2.66,0,0,1,1.7-.92,1.83,1.83,0,0,1,1.44.65,1.89,1.89,0,0,1,.52,1.48,2.76,2.76,0,0,1-.92,1.7c-3.95,4-5.86,6-9.52,10.31a3.36,3.36,0,0,1-2.11,1.38,3.08,3.08,0,0,1-2.24-1L124.7,242.12a3.78,3.78,0,0,1-1.08-1.46,2.26,2.26,0,0,1,0-1.56,5.63,5.63,0,0,1,1.09-1.77c4-4.71,6.13-7,10.46-11.36A3.18,3.18,0,0,1,137,224.9a1.63,1.63,0,0,1,1.43.55,1.8,1.8,0,0,1,.48,1.51A3.32,3.32,0,0,1,137.84,228.79Z" transform="translate(1.9 -35.23)"/><path class="cls-10" d="M155.6,226.31l-1.43,1.25,5.1,6.16a3.37,3.37,0,0,1,1,2.26,2.58,2.58,0,0,1-.89,1.81,2.32,2.32,0,0,1-1.91.69,3.28,3.28,0,0,1-2-1.26l-12.62-14.38a3,3,0,0,1-.94-2.34,4.12,4.12,0,0,1,1.53-2.39c2.8-2.54,4.23-3.78,7.14-6.19a27.59,27.59,0,0,1,2.68-2,9.32,9.32,0,0,1,2.3-1.08,7.11,7.11,0,0,1,2.7-.3,5.78,5.78,0,0,1,2.46.81,6.72,6.72,0,0,1,3.09,6.48,10.89,10.89,0,0,1-2.66,5.08,9.07,9.07,0,0,1,3.41,0A20.25,20.25,0,0,1,171,223.3a5.14,5.14,0,0,1,1.43,1.1,1.85,1.85,0,0,1,.31,1,2.38,2.38,0,0,1-.26,1.15,2.82,2.82,0,0,1-.85,1,2.41,2.41,0,0,1-1.38.56,3.71,3.71,0,0,1-1.39-.19c-.47-.16-1.12-.4-2-.73-1.46-.56-2.19-.84-3.66-1.37a15.68,15.68,0,0,0-3.31-.93,4.78,4.78,0,0,0-2.24.15A6.43,6.43,0,0,0,155.6,226.31Zm-4.13-10.24c-1.6,1.36-2.4,2.05-4,3.45l4.37,5.26c1.48-1.31,2.23-2,3.74-3.23a17.15,17.15,0,0,0,2.38-2.39,4.24,4.24,0,0,0,1-2.16,3,3,0,0,0-.68-2.12,2.92,2.92,0,0,0-1.55-1.1,3.33,3.33,0,0,0-2,.09A12.45,12.45,0,0,0,151.47,216.07Z" transform="translate(1.9 -35.23)"/><path class="cls-10" d="M166,200.27c2.49-1.7,3.75-2.52,6.3-4.13a21,21,0,0,1,4.53-2.22,8.92,8.92,0,0,1,4.13-.34c3.61.51,6.4,2.88,8.47,6.94a19.2,19.2,0,0,1,1.5,3.87,12.58,12.58,0,0,1,.43,3.59,11.29,11.29,0,0,1-.63,3.43,9.89,9.89,0,0,1-1.25,2.39,10.88,10.88,0,0,1-1.85,2,22.33,22.33,0,0,1-2.54,1.83c-2.26,1.42-3.37,2.15-5.57,3.65a4.23,4.23,0,0,1-1.95.84,1.93,1.93,0,0,1-1.4-.45,7.49,7.49,0,0,1-1.27-1.52l-10.1-15.27a3.07,3.07,0,0,1-.62-2.46A4.09,4.09,0,0,1,166,200.27Zm4,2.15,9,14.39c1.31-.87,2-1.3,3.31-2.15.73-.47,1.29-.84,1.69-1.14a7.28,7.28,0,0,0,1.13-1.1,4.6,4.6,0,0,0,.8-1.38c.8-2.15.4-4.77-1.28-7.85a9.81,9.81,0,0,0-3.71-4.25,5.09,5.09,0,0,0-3.77-.48,15.45,15.45,0,0,0-4,1.91C171.87,201.18,171.24,201.59,170,202.42Z" transform="translate(1.9 -35.23)"/><path class="cls-10" d="M211.52,200.81c-.91-1-1.37-1.48-2.29-2.46-3.9,1.64-5.82,2.51-9.62,4.37.09,1.39.14,2.08.24,3.46a12.36,12.36,0,0,1,0,2.85,2,2,0,0,1-1.17,1.33,2.34,2.34,0,0,1-1.82.16,2.09,2.09,0,0,1-1.36-1.08,3.46,3.46,0,0,1-.32-1c-.06-.38-.12-.92-.16-1.63-.56-7.07-.73-10.63-.84-17.82,0-.51,0-1.13,0-1.85a8.13,8.13,0,0,1,.17-1.89,3.58,3.58,0,0,1,.76-1.52,5,5,0,0,1,3.65-1.66,3.54,3.54,0,0,1,1.58.43,6.49,6.49,0,0,1,1.28.94c.38.36.89.85,1.5,1.46,5.09,4.88,7.54,7.39,12.25,12.54a7.53,7.53,0,0,1,1.64,2.25,2.27,2.27,0,0,1-.15,1.77,2.58,2.58,0,0,1-2.43,1.51,2.07,2.07,0,0,1-.88-.28,5.31,5.31,0,0,1-1-.82Zm-12.23-2.18c2.86-1.37,4.3-2,7.21-3.27-3-3.22-4.56-4.8-7.71-7.92C198.91,191.94,199,194.18,199.29,198.63Z" transform="translate(1.9 -35.23)"/><path class="cls-10" d="M238,187.34a7.36,7.36,0,0,1-.29,4.29,8.41,8.41,0,0,1-2.75,3.64,14.36,14.36,0,0,1-4.95,2.47,13,13,0,0,1-6.31.51,8.34,8.34,0,0,1-3.51-1.64,6,6,0,0,1-2.08-2.75,2.14,2.14,0,0,1,.13-1.73,2.37,2.37,0,0,1,1.42-1.2,2.09,2.09,0,0,1,1.52,0,3.93,3.93,0,0,1,1.4,1.14,9.86,9.86,0,0,0,1.61,1.58,4.27,4.27,0,0,0,1.92.79,6.39,6.39,0,0,0,2.76-.3,6.59,6.59,0,0,0,3.37-2.07,3.26,3.26,0,0,0,.77-2.94,2.66,2.66,0,0,0-1.28-1.76,5.15,5.15,0,0,0-2.31-.6,31.9,31.9,0,0,0-3.54.13,29.73,29.73,0,0,1-5.05,0,7.94,7.94,0,0,1-3.66-1.2,5.6,5.6,0,0,1-2.25-3.07,5.8,5.8,0,0,1,0-3.92,7.94,7.94,0,0,1,2.76-3.56,16,16,0,0,1,5.25-2.55,15,15,0,0,1,4.55-.7,9.6,9.6,0,0,1,3.46.66,6.27,6.27,0,0,1,2.24,1.5,4.11,4.11,0,0,1,1,1.86,2.29,2.29,0,0,1-.33,1.77,2.39,2.39,0,0,1-1.55,1.14,2.2,2.2,0,0,1-1.52,0,5.67,5.67,0,0,1-1.4-1.11,6.78,6.78,0,0,0-2.33-1.67,5.67,5.67,0,0,0-3.54.2,6.42,6.42,0,0,0-3.17,1.89,2.5,2.5,0,0,0-.68,2.41,2,2,0,0,0,.81,1.11,3.82,3.82,0,0,0,1.46.52,9.86,9.86,0,0,0,1.7.12c.55,0,1.47-.06,2.72-.14a40,40,0,0,1,4.32-.08,12.5,12.5,0,0,1,3.42.62,5.85,5.85,0,0,1,2.46,1.63A6.57,6.57,0,0,1,238,187.34Z" transform="translate(1.9 -35.23)"/><path class="cls-10" d="M342.21,165.7c.42,7.55.54,11.32.59,18.82,4.59-5.87,7-8.76,11.87-14.44.64-.75,1.11-1.26,1.4-1.53a2.6,2.6,0,0,1,1.14-.61,2.72,2.72,0,0,1,1.68.21,3.12,3.12,0,0,1,1.19.86,2.74,2.74,0,0,1,.61,1.23,2.08,2.08,0,0,1-.07,1.2,3.8,3.8,0,0,1-.42.75,6.91,6.91,0,0,1-.61.71l-.65.7c-5.08,5.3-7.54,8-12.3,13.52-.44.53-.86,1-1.28,1.51a7.67,7.67,0,0,1-1.27,1.18,3.48,3.48,0,0,1-1.49.62,3.66,3.66,0,0,1-1.86-.22,4,4,0,0,1-1.59-1,3.71,3.71,0,0,1-.8-1.45,8.63,8.63,0,0,1-.29-1.76c0-.63-.07-1.3-.09-2-.39-7.31-.68-11-1.44-18.33,0-.33-.07-.66-.1-1a5.8,5.8,0,0,1,0-1,4,4,0,0,1,.11-.88,2.16,2.16,0,0,1,1.25-1.36,2.89,2.89,0,0,1,2.19-.11,2.6,2.6,0,0,1,1.82,1.46A10.69,10.69,0,0,1,342.21,165.7Z" transform="translate(1.9 -35.23)"/><path class="cls-10" d="M356.65,193.13c3.18-7.62,4.76-11.43,7.93-19a3.19,3.19,0,0,1,1.68-1.9,2.81,2.81,0,0,1,2.24.14,3.08,3.08,0,0,1,1.66,1.65,3.28,3.28,0,0,1-.23,2.56c-3.35,7.54-5,11.31-8.36,18.85a3.42,3.42,0,0,1-1.66,1.91,2.73,2.73,0,0,1-3.5-1.62A3.53,3.53,0,0,1,356.65,193.13Z" transform="translate(1.9 -35.23)"/><path class="cls-10" d="M387.15,203.64a7.42,7.42,0,0,1-3.2,3,8.19,8.19,0,0,1-4.57.69,14.32,14.32,0,0,1-5.37-1.88,13.68,13.68,0,0,1-5-4.38,9.26,9.26,0,0,1-1.4-3.88,6.54,6.54,0,0,1,.44-3.61,2.14,2.14,0,0,1,1.32-1.18,2.39,2.39,0,0,1,1.89.19,2.2,2.2,0,0,1,1.08,1.17,4.3,4.3,0,0,1,.21,1.9,11.59,11.59,0,0,0,.06,2.4,4.73,4.73,0,0,0,.85,2,6.73,6.73,0,0,0,2.22,1.85,6.61,6.61,0,0,0,3.92,1,3.2,3.2,0,0,0,2.63-1.62,2.92,2.92,0,0,0,.31-2.27,5.48,5.48,0,0,0-1.27-2.17,34.58,34.58,0,0,0-2.66-2.55,32.12,32.12,0,0,1-3.7-3.76,8.85,8.85,0,0,1-1.81-3.66,6.12,6.12,0,0,1,.56-4,5.9,5.9,0,0,1,2.8-2.88,7.69,7.69,0,0,1,4.49-.56,15.85,15.85,0,0,1,5.56,2,15.42,15.42,0,0,1,3.77,2.85,10.21,10.21,0,0,1,2,3,6.87,6.87,0,0,1,.57,2.78,4.35,4.35,0,0,1-.56,2.14,2.28,2.28,0,0,1-1.47,1.09,2.32,2.32,0,0,1-1.91-.28,2.27,2.27,0,0,1-1.07-1.17,6.38,6.38,0,0,1-.24-1.87,7.33,7.33,0,0,0-.51-3,6,6,0,0,0-2.69-2.49,6.45,6.45,0,0,0-3.61-1,2.48,2.48,0,0,0-2.19,1.29,2.17,2.17,0,0,0-.2,1.43,4.2,4.2,0,0,0,.69,1.48,10.13,10.13,0,0,0,1.14,1.36c.41.4,1.11,1.06,2.07,1.93a41.35,41.35,0,0,1,3.18,3.16,13,13,0,0,1,2.05,3,6.52,6.52,0,0,1,.65,3A7,7,0,0,1,387.15,203.64Z" transform="translate(1.9 -35.23)"/><path class="cls-10" d="M388.64,210.59c4.29-7,6.44-10.51,10.74-17.52a3.13,3.13,0,0,1,1.93-1.6,2.79,2.79,0,0,1,2.19.5,3.08,3.08,0,0,1,1.37,1.88,3.27,3.27,0,0,1-.63,2.5c-4.45,6.9-6.67,10.35-11.13,17.25a3.37,3.37,0,0,1-1.92,1.61,2.54,2.54,0,0,1-2-.42,2.56,2.56,0,0,1-1.15-1.74A3.54,3.54,0,0,1,388.64,210.59Z" transform="translate(1.9 -35.23)"/><path class="cls-10" d="M421.63,205.38a16.53,16.53,0,0,1,5,6.32,11.2,11.2,0,0,1,.7,6.82A14.65,14.65,0,0,1,424,225a16.47,16.47,0,0,1-4.18,3.59,11.86,11.86,0,0,1-4.64,1.58,11.09,11.09,0,0,1-4.84-.55,15.64,15.64,0,0,1-4.83-2.77,16.21,16.21,0,0,1-3.75-4.23,12.09,12.09,0,0,1-1.67-4.75,12.93,12.93,0,0,1,.41-5.06,17.32,17.32,0,0,1,2.35-5,15.28,15.28,0,0,1,3.85-4,10.7,10.7,0,0,1,4.63-1.88,11.1,11.1,0,0,1,5.09.5A16.51,16.51,0,0,1,421.63,205.38Zm-1.94,15.81a11.31,11.31,0,0,0,2.35-4.5,7.22,7.22,0,0,0-.23-4.35,8.62,8.62,0,0,0-2.71-3.62,8.11,8.11,0,0,0-2.88-1.55,6.5,6.5,0,0,0-3-.17,7.51,7.51,0,0,0-3,1.34,12.05,12.05,0,0,0-2.78,2.86,13.27,13.27,0,0,0-1.85,3.63,8.69,8.69,0,0,0-.42,3.42,7.3,7.3,0,0,0,.86,2.92,7.86,7.86,0,0,0,2,2.34,7.48,7.48,0,0,0,3.57,1.64,6.86,6.86,0,0,0,4.08-.62A11.39,11.39,0,0,0,419.69,221.19Z" transform="translate(1.9 -35.23)"/><path class="cls-10" d="M439.77,226c-1,7.67-1.62,11.45-3.12,18.86l11-10.7a3,3,0,0,1,2.11-1,2.56,2.56,0,0,1,1.87,1,2.8,2.8,0,0,1,.8,2,3.15,3.15,0,0,1-1.16,2.09l-14.9,13.83c-1.66,1.55-3.12,1.58-4.4.14a4.09,4.09,0,0,1-.73-1.11,3.4,3.4,0,0,1-.26-1.25,6.29,6.29,0,0,1,.1-1.42c.08-.49.17-1,.27-1.49,1.52-7.24,2.16-10.92,3.19-18.4l-10.32,11.14a3.19,3.19,0,0,1-2,1.15,2.29,2.29,0,0,1-1.8-.7,2.42,2.42,0,0,1-.8-1.84,3.38,3.38,0,0,1,1-2.15l13.28-15a4.83,4.83,0,0,1,1.55-1.27,2.74,2.74,0,0,1,1.78-.1,3.91,3.91,0,0,1,2.54,2.09,3.25,3.25,0,0,1,.29,1.16,6.54,6.54,0,0,1-.06,1.36C439.93,225,439.85,225.49,439.77,226Z" transform="translate(1.9 -35.23)"/><path class="cls-10" d="M466.09,259.55c-3.09-4.39-4.69-6.53-8-10.73l-4.85,4.08c2.95,3.76,4.39,5.69,7.18,9.61a3.11,3.11,0,0,1,.71,1.94,1.8,1.8,0,0,1-.76,1.38,1.76,1.76,0,0,1-1.52.33,2.93,2.93,0,0,1-1.57-1.27c-2.74-3.86-4.15-5.75-7.06-9.45l-5.62,4.72c3.17,4,4.7,6.1,7.66,10.32a3,3,0,0,1,.67,1.95,2,2,0,0,1-.86,1.44,1.82,1.82,0,0,1-1.56.34A2.76,2.76,0,0,1,449,273c-3.4-4.84-5.16-7.2-8.83-11.78a3.7,3.7,0,0,1-1-2.47,3.42,3.42,0,0,1,1.35-2.22L455,243.67a3.78,3.78,0,0,1,1.62-.93,2.16,2.16,0,0,1,1.54.25,5.65,5.65,0,0,1,1.57,1.41c4,5,5.88,7.51,9.55,12.73a3.45,3.45,0,0,1,.79,2.09,1.8,1.8,0,0,1-.77,1.43,1.72,1.72,0,0,1-1.58.3A3.3,3.3,0,0,1,466.09,259.55Z" transform="translate(1.9 -35.23)"/><path class="cls-10" d="M466,278.83l-1.05-1.7-6.87,4.59a3.22,3.22,0,0,1-2.4.7,2.58,2.58,0,0,1-1.69-1.23,2.66,2.66,0,0,1-.44-2.15,3.56,3.56,0,0,1,1.55-2l16.19-11.4a3,3,0,0,1,2.47-.67,4.13,4.13,0,0,1,2.16,2c2.13,3.33,3.16,5,5.17,8.44a32.27,32.27,0,0,1,1.63,3.13,10.71,10.71,0,0,1,.77,2.6,8.23,8.23,0,0,1,0,2.93,6.43,6.43,0,0,1-1.13,2.54,6.53,6.53,0,0,1-2,1.8,5.9,5.9,0,0,1-4.85.66,11.16,11.16,0,0,1-4.76-3.55,10.14,10.14,0,0,1-.43,3.66,21.32,21.32,0,0,1-1.45,3.71A22,22,0,0,1,467,295.8a5.63,5.63,0,0,1-1.28,1.41,1.77,1.77,0,0,1-1,.19,2.37,2.37,0,0,1-1.13-.44,3.17,3.17,0,0,1-.9-1.06,3,3,0,0,1-.39-1.57,4.54,4.54,0,0,1,.37-1.48q.31-.72,1-2c.75-1.49,1.12-2.25,1.84-3.76a17.91,17.91,0,0,0,1.37-3.43,5.58,5.58,0,0,0,.15-2.43A7.3,7.3,0,0,0,466,278.83Zm10.81-3c-1.13-1.9-1.71-2.85-2.88-4.72L468,275.05c1.11,1.77,1.65,2.66,2.72,4.45a17,17,0,0,0,2.07,2.88,4.28,4.28,0,0,0,2,1.34,2.89,2.89,0,0,0,2.22-.44,3.06,3.06,0,0,0,1.3-1.52,3.82,3.82,0,0,0,.18-2.14A13.78,13.78,0,0,0,476.78,275.84Z" transform="translate(1.9 -35.23)"/><path class="cls-10" d="M501.47,368.58c-.42-2-.65-3-1.13-5l-19.71.06A5,5,0,0,1,478,363a2.37,2.37,0,0,1-1.2-1.5,1.45,1.45,0,0,1,.43-1.55,3.59,3.59,0,0,1,2.34-.65l19.63-.38c-.55-2-.84-3-1.46-5.05a2,2,0,0,1,.07-1.8,1.74,1.74,0,0,1,1.43-.65A2.8,2.8,0,0,1,501,352a3.23,3.23,0,0,1,1.15,1.74A143.59,143.59,0,0,1,506,368.65a2,2,0,0,1-.27,1.79,1.9,1.9,0,0,1-1.54.56,2.84,2.84,0,0,1-1.76-.63A3,3,0,0,1,501.47,368.58Z" transform="translate(1.9 -35.23)"/><path class="cls-10" d="M504.62,388.57c-.32-4.1-.55-6.16-1.15-10.3l-6.73-.33c.54,3.71.75,5.57,1.05,9.25a1.61,1.61,0,0,1-.45,1.47,2,2,0,0,1-1.48.37,2.74,2.74,0,0,1-1.56-.63,2.2,2.2,0,0,1-.71-1.55c-.3-3.64-.51-5.46-1-9.12l-7.79-.39c.58,4,.79,6,1.09,9.94a1.55,1.55,0,0,1-.51,1.45,2.18,2.18,0,0,1-1.59.36,2.88,2.88,0,0,1-1.62-.65,2.18,2.18,0,0,1-.71-1.54c-.34-4.54-.6-6.82-1.32-11.4a2,2,0,0,1,.48-2,3.81,3.81,0,0,1,2.49-.52l20.54.69a5.63,5.63,0,0,1,2,.36,2.69,2.69,0,0,1,1.26,1,3.85,3.85,0,0,1,.61,1.64c.77,4.92,1.06,7.38,1.43,12.26a1.8,1.8,0,0,1-.47,1.59,1.94,1.94,0,0,1-1.51.39,2.69,2.69,0,0,1-1.61-.68A2.45,2.45,0,0,1,504.62,388.57Z" transform="translate(1.9 -35.23)"/><path class="cls-10" d="M493.59,399.27v-1.51l-8.86-1.1a5.09,5.09,0,0,1-2.58-.89,2,2,0,0,1-.85-1.59,1.49,1.49,0,0,1,.83-1.44,4.45,4.45,0,0,1,2.51-.27l21.2,2.28a4.55,4.55,0,0,1,2.64.95,3,3,0,0,1,.86,2.23c.05,3,0,4.47,0,7.43A16.93,16.93,0,0,1,509,408a5,5,0,0,1-.76,1.85,5.2,5.2,0,0,1-1.69,1.6,6.39,6.39,0,0,1-2.45.81,9.67,9.67,0,0,1-2.88-.08,8.94,8.94,0,0,1-4.8-2.19,8.6,8.6,0,0,1-2.36-4.48,7.33,7.33,0,0,1-2.45,1.81,20.71,20.71,0,0,1-3.41,1.29,27.34,27.34,0,0,1-3.23.7,7.68,7.68,0,0,1-2,.1,2.64,2.64,0,0,1-1.06-.44,2.53,2.53,0,0,1-.79-.84A1.83,1.83,0,0,1,481,407a1.48,1.48,0,0,1,.52-1.09,3.42,3.42,0,0,1,1.17-.62c.46-.16,1.14-.36,2-.62,1.53-.43,2.29-.66,3.8-1.11a17.88,17.88,0,0,0,3.18-1.18,3.63,3.63,0,0,0,1.5-1.28A3.78,3.78,0,0,0,493.59,399.27Zm11.54,4.07c0-1.66.05-2.49,0-4.15l-7.58-.94c0,1.58,0,2.36,0,3.93a9.41,9.41,0,0,0,.27,2.69,3.56,3.56,0,0,0,1.1,1.82,4.51,4.51,0,0,0,2.27.92,4.18,4.18,0,0,0,2.05-.14,2.6,2.6,0,0,0,1.37-1.1A6.93,6.93,0,0,0,505.13,403.34Z" transform="translate(1.9 -35.23)"/><path class="cls-10" d="M481.85,425.93c1.45-.05,2.18-.08,3.63-.15.69-3.26,1-4.91,1.47-8.22l-3.37-1.67a17.06,17.06,0,0,1-2.65-1.5,1.49,1.49,0,0,1-.56-1.43,1.57,1.57,0,0,1,.93-1.21,2.65,2.65,0,0,1,1.8-.27,5.21,5.21,0,0,1,1.15.35c.39.16.93.42,1.62.76,6.9,3.4,10.33,5.16,17.11,8.83l1.76.94a10.29,10.29,0,0,1,1.67,1.09,3.44,3.44,0,0,1,1,1.24,2.58,2.58,0,0,1,.17,1.62,2.53,2.53,0,0,1-.72,1.45,3.3,3.3,0,0,1-1.32.74,9.06,9.06,0,0,1-1.6.29c-.57,0-1.32.11-2.25.16-7.5.6-11.26.82-18.79,1.12a11.7,11.7,0,0,1-3.06-.14,3,3,0,0,1-1.59-1,1.69,1.69,0,0,1-.45-1.55,1.33,1.33,0,0,1,.42-.74,2,2,0,0,1,.76-.41,7.3,7.3,0,0,1,1.33-.19ZM491,419.5c-.39,2.47-.61,3.7-1.1,6.14,4.75-.19,7.13-.32,11.87-.63C497.45,422.76,495.29,421.66,491,419.5Z" transform="translate(1.9 -35.23)"/><path class="cls-10" d="M479,439.94c7.26.79,10.9,1.13,18.17,1.74l-18.59-5.25a4.52,4.52,0,0,1-2.17-1.14,1.55,1.55,0,0,1-.38-1.52,1.6,1.6,0,0,1,1.14-1.08,4.65,4.65,0,0,1,2.47.12l21.41,5.72a3.16,3.16,0,0,1,2.19,1.37,3,3,0,0,1,0,2.13c-.16.53-.24.79-.41,1.33a4.09,4.09,0,0,1-.83,1.65,1.8,1.8,0,0,1-1.25.51,19.46,19.46,0,0,1-2.52-.1c-6.29-.53-9.43-.82-15.69-1.49,5.44,2.94,8.15,4.43,13.52,7.49a16.23,16.23,0,0,1,2.08,1.31,1.59,1.59,0,0,1,.67,1.1,4.11,4.11,0,0,1-.41,1.79l-.55,1.29a3.24,3.24,0,0,1-1.42,1.68,3.4,3.4,0,0,1-2.64-.12L473,451.21a4.24,4.24,0,0,1-2-1.26,1.45,1.45,0,0,1-.2-1.53,1.74,1.74,0,0,1,1.28-1,4.67,4.67,0,0,1,2.48.28l18.3,6.07c-6.22-3.53-9.36-5.26-15.67-8.65-1-.55-1.77-1-2.24-1.26a3.45,3.45,0,0,1-1.15-1.13,1.71,1.71,0,0,1-.13-1.58,1.8,1.8,0,0,1,.82-1,2.93,2.93,0,0,1,1.3-.41,8.16,8.16,0,0,1,1.56,0Z" transform="translate(1.9 -35.23)"/><path class="cls-10" d="M475,465.16c.77-1.38,1.15-2.07,1.89-3.47l-7.35-2.82a4.23,4.23,0,0,1-2.12-1.44,1.51,1.51,0,0,1-.15-1.61,2,2,0,0,1,1.48-1,5.07,5.07,0,0,1,2.64.36l20.16,7.39a3.73,3.73,0,0,1,2.2,1.53,2.47,2.47,0,0,1-.24,2.24c-1.07,2.08-1.63,3.11-2.78,5.17a12.85,12.85,0,0,1-2.48,3.29,6.92,6.92,0,0,1-2.7,1.45,8.85,8.85,0,0,1-3.27.24,12.23,12.23,0,0,1-3.55-1c-2.58-1.12-4.16-2.55-4.78-4.28S473.73,467.47,475,465.16Zm12.34,3.78c.59-1.07.88-1.6,1.45-2.67l-7.94-3c-.55,1-.83,1.56-1.4,2.59a6.94,6.94,0,0,0-.89,2.42,2.61,2.61,0,0,0,.45,1.89,4.53,4.53,0,0,0,2,1.43,5.38,5.38,0,0,0,3.2.4C485.33,471.72,486.4,470.7,487.37,468.94Z" transform="translate(1.9 -35.23)"/><path class="cls-10" d="M461.67,472l19.8,9a3.69,3.69,0,0,1,1.95,1.57,1.65,1.65,0,0,1-.18,1.73,2.46,2.46,0,0,1-1.75,1,4.66,4.66,0,0,1-2.68-.55l-19.59-9.24a4,4,0,0,1-2-1.57,1.47,1.47,0,0,1,.13-1.62,2.17,2.17,0,0,1,1.63-.88A5.14,5.14,0,0,1,461.67,472Z" transform="translate(1.9 -35.23)"/><path class="cls-10" d="M472.81,492.56l-17.67-9.09c-2.26,2.75-3.44,4.1-5.9,6.77a2.59,2.59,0,0,1-1.69.89,2.87,2.87,0,0,1-1.81-.38,1.85,1.85,0,0,1-1-1.21,1.72,1.72,0,0,1,.59-1.5c2.87-3.12,4.24-4.71,6.84-8a2.92,2.92,0,0,1,2-1.22,5,5,0,0,1,2.7.66l18.93,9.35a3.56,3.56,0,0,1,1.86,1.62,1.63,1.63,0,0,1-.3,1.72,2.65,2.65,0,0,1-1.83,1A4.73,4.73,0,0,1,472.81,492.56Z" transform="translate(1.9 -35.23)"/><polygon class="cls-11" points="293.98 104.28 299.67 116.2 312.38 118.11 303.18 127.38 305.35 140.47 293.98 134.29 282.61 140.47 284.78 127.38 275.58 118.11 288.3 116.2 293.98 104.28"/><polygon class="cls-11" points="488.9 261.36 494.59 273.27 507.3 275.18 498.1 284.45 500.27 297.55 488.9 291.37 477.53 297.55 479.7 284.45 470.5 275.18 483.22 273.27 488.9 261.36"/><polygon class="cls-11" points="97.09 264.14 102.78 276.06 115.49 277.97 106.29 287.24 108.46 300.33 97.09 294.15 85.72 300.33 87.89 287.24 78.69 277.97 91.41 276.06 97.09 264.14"/><polygon points="436.81 458.99 428.88 509.48 450.18 530.59 422.94 552.29 409 522.88 388.02 499.6 436.81 458.99"/><polygon class="cls-12" points="434.79 464.12 426.29 510.95 444.53 531.44 422.47 546.97 412.58 522.67 391.47 500.18 434.79 464.12"/><polygon class="cls-11" points="434.79 464.12 426.29 510.95 412.58 522.67 391.47 500.18 434.79 464.12"/><path class="cls-13" d="M172.74,546.07s61.15,33.6,111.52,33.6,115.75-31,115.75-31L425.78,596s-69,36-139.59,36-136.9-40-136.9-40Z" transform="translate(1.9 -35.23)"/><polygon points="147.6 453.72 151.83 504.68 129.04 524.07 154.63 547.83 170.67 519.59 193.28 498.01 147.6 453.72"/><polygon class="cls-12" points="149.23 458.99 154.31 506.34 134.62 525.36 155.48 542.56 167.12 519.09 189.8 498.32 149.23 458.99"/><polygon class="cls-11" points="149.23 458.99 154.31 506.34 167.12 519.09 189.8 498.32 149.23 458.99"/><path class="cls-10" d="M171.55,587.7a14.07,14.07,0,0,1-1.15,4.63,4.7,4.7,0,0,1-2.29,2.49,3.61,3.61,0,0,1-3.18-.28,7.46,7.46,0,0,1-3.3-3.48A14.85,14.85,0,0,1,160.4,587a16.12,16.12,0,0,1-.17-4.27,3.45,3.45,0,0,1,.57-1.72.72.72,0,0,1,1-.31,1.63,1.63,0,0,1,.7,1,9.65,9.65,0,0,1,.34,2.12,26.34,26.34,0,0,0,.33,2.72,7.17,7.17,0,0,0,.71,2.06,3.33,3.33,0,0,0,1.44,1.39,1.76,1.76,0,0,0,2.21-.23,4.29,4.29,0,0,0,1.12-2.78,7.15,7.15,0,0,0-.18-2.67,6,6,0,0,0-1-2,25.57,25.57,0,0,0-1.71-2,17.67,17.67,0,0,1-2.35-3.09,11.45,11.45,0,0,1-1.32-3.64,15.75,15.75,0,0,1-.12-4.7,11.85,11.85,0,0,1,1.1-4.11,3.88,3.88,0,0,1,2.13-2,3.76,3.76,0,0,1,2.9.39,6.09,6.09,0,0,1,2.14,1.8,9.51,9.51,0,0,1,1.36,2.61,13.28,13.28,0,0,1,.67,2.86,12,12,0,0,1,0,2.6,4.2,4.2,0,0,1-.55,1.81c-.3.47-.63.62-1,.44a1.36,1.36,0,0,1-.68-.89,11.88,11.88,0,0,1-.38-2,15.12,15.12,0,0,0-.64-3.14,3.15,3.15,0,0,0-1.62-1.82,1.53,1.53,0,0,0-1.87.14,3.24,3.24,0,0,0-.93,2.16,5.23,5.23,0,0,0,.06,1.69,5.34,5.34,0,0,0,.51,1.47,7.26,7.26,0,0,0,.73,1.16c.26.32.68.82,1.28,1.47.73.8,1.42,1.6,2,2.4a12.34,12.34,0,0,1,1.46,2.57,11.73,11.73,0,0,1,.8,3.14A18.38,18.38,0,0,1,171.55,587.7Z" transform="translate(1.9 -35.23)"/><path class="cls-10" d="M178.36,595.62c-.2-8.18-.29-12.27-.46-20.45-.79,8.41-1.19,12.62-2,21a5.89,5.89,0,0,1-.62,2.45c-.29.47-.65.61-1.05.42a1.88,1.88,0,0,1-.87-1.31,8.09,8.09,0,0,1-.12-2.8c.92-9.63,1.39-14.44,2.31-24.08a4.14,4.14,0,0,1,.74-2.46,1.17,1.17,0,0,1,1.35-.1l.87.41a2.62,2.62,0,0,1,1.12.83,2.91,2.91,0,0,1,.42,1.36c.07.6.12,1.53.15,2.82.2,7,.31,10.57.53,17.62,1.43-6.32,2.14-9.49,3.54-15.83.25-1.15.46-2,.62-2.47a1.4,1.4,0,0,1,.63-.9,1.64,1.64,0,0,1,1.18.17l.87.37a2.37,2.37,0,0,1,1.23,1.24,6,6,0,0,1,.25,2.9c-.81,9.68-1.21,14.52-2,24.2a6,6,0,0,1-.58,2.48c-.3.48-.65.64-1.06.47a1.81,1.81,0,0,1-.88-1.28,8.14,8.14,0,0,1-.14-2.78c.73-8.44,1.09-12.66,1.82-21.1-1.58,7.41-2.37,11.11-4,18.5-.26,1.2-.47,2.07-.61,2.62a3.71,3.71,0,0,1-.67,1.38.85.85,0,0,1-1.12.27,1.7,1.7,0,0,1-.82-.85,5.29,5.29,0,0,1-.44-1.44,15.35,15.35,0,0,1-.16-1.75C178.4,596.94,178.38,596.29,178.36,595.62Z" transform="translate(1.9 -35.23)"/><path class="cls-10" d="M199.25,605.24l-.4-4.1c-2.33-.84-3.49-1.28-5.82-2.18-.39,1.47-.59,2.2-1,3.67a18.47,18.47,0,0,1-.93,2.83.73.73,0,0,1-1,.44,1.91,1.91,0,0,1-.9-1.24,5.22,5.22,0,0,1-.26-2.11,7.86,7.86,0,0,1,.2-1.26c.1-.42.26-1,.48-1.73,2.11-7.37,3.16-11.06,5.22-18.47.15-.53.32-1.17.53-1.92a14,14,0,0,1,.62-1.82,2.58,2.58,0,0,1,.74-1,1,1,0,0,1,1-.12,1.76,1.76,0,0,1,.95.86,5.09,5.09,0,0,1,.55,1.5c.12.58.22,1.18.29,1.81s.15,1.48.25,2.54c.88,8.46,1.34,12.68,2.27,21.14a20.77,20.77,0,0,1,.21,3.44,3.79,3.79,0,0,1-.55,1.82c-.32.5-.68.68-1.07.54a1.18,1.18,0,0,1-.58-.47,3,3,0,0,1-.36-.86,12,12,0,0,1-.25-1.51C199.37,606.33,199.3,605.74,199.25,605.24Zm-5.09-10.65c1.7.65,2.55,1,4.25,1.59-.48-5.38-.71-8.07-1.18-13.45C196,587.48,195.4,589.85,194.16,594.59Z" transform="translate(1.9 -35.23)"/><path class="cls-10" d="M209.86,584.21c1.72,8,2.6,11.94,4.39,19.87.44-7.34.67-11,1.11-18.35a6.85,6.85,0,0,1,.51-2.57c.27-.53.6-.74,1-.62s.72.51.92,1.17a8.42,8.42,0,0,1,.2,2.79c-.57,9.71-.85,14.56-1.41,24.27q-.24,4.07-1.82,3.61a1.53,1.53,0,0,1-.69-.45,3.21,3.21,0,0,1-.55-.95,10.73,10.73,0,0,1-.44-1.38c-.12-.52-.25-1-.38-1.58-1.75-7.84-2.6-11.77-4.28-19.65-.48,7.22-.72,10.83-1.19,18a6.33,6.33,0,0,1-.56,2.54c-.3.52-.65.72-1,.58s-.72-.55-.93-1.24a8,8,0,0,1-.19-2.78c.65-9.49,1-14.24,1.63-23.73a13.45,13.45,0,0,1,.31-2.32,2.94,2.94,0,0,1,.71-1.34.91.91,0,0,1,.95-.3,1.28,1.28,0,0,1,.64.49,3.51,3.51,0,0,1,.43.89,11.48,11.48,0,0,1,.34,1.33C209.62,583.07,209.74,583.63,209.86,584.21Z" transform="translate(1.9 -35.23)"/><path class="cls-10" d="M228.89,614.62c.37-7.68.55-11.52.91-19.21-1.77,2.36-3,3.46-3.52,3.32-.27-.07-.5-.36-.69-.89a4.52,4.52,0,0,1-.23-1.71,2.77,2.77,0,0,1,.39-1.5,6.75,6.75,0,0,1,1.16-1,8.19,8.19,0,0,0,2-2.08,15.25,15.25,0,0,0,1.38-2.68c.41-1,.68-1.64.8-1.87a.5.5,0,0,1,.63-.24q.51.12.78,1a7.74,7.74,0,0,1,.2,2.46c-.44,9.67-.65,14.5-1.09,24.18q-.2,4.25-1.55,3.94c-.4-.09-.71-.46-.93-1.09A7.62,7.62,0,0,1,228.89,614.62Z" transform="translate(1.9 -35.23)"/><path class="cls-10" d="M245.62,593c-.15,4.35-.23,6.53-.38,10.88,2.46-4.77,3.67-7.17,6.07-12a9.37,9.37,0,0,1,.73-1.28.75.75,0,0,1,.77-.33c.41,0,.74.36,1,.92a4.76,4.76,0,0,1,.33,2,5.89,5.89,0,0,1-.73,2.65c-1.48,2.71-2.22,4.06-3.71,6.75,1.47,5.29,2.21,7.93,3.71,13.19.27.92.46,1.71.59,2.39a9.38,9.38,0,0,1,.17,1.94,3.71,3.71,0,0,1-.43,1.75,1,1,0,0,1-1.06.63,1.37,1.37,0,0,1-1-.7,5.6,5.6,0,0,1-.61-1.58l-.43-1.76c-1.25-4.78-1.87-7.17-3.1-11.95-1,1.82-1.52,2.73-2.54,4.54-.09,2.57-.13,3.85-.22,6.41a7,7,0,0,1-.51,2.82c-.3.58-.67.84-1.1.76a1.12,1.12,0,0,1-.71-.55,3.37,3.37,0,0,1-.49-1.23,6.68,6.68,0,0,1-.12-1.41c0-.52,0-1.28.05-2.27l.85-23.06a7.43,7.43,0,0,1,.48-2.78c.28-.59.63-.85,1.07-.77s.77.44,1,1.12A8.1,8.1,0,0,1,245.62,593Z" transform="translate(1.9 -35.23)"/><path class="cls-10" d="M260.2,594.94c-.19,9-.29,13.57-.48,22.62,2.37.25,3.56.36,5.94.55a1.27,1.27,0,0,1,1.07.83,4.14,4.14,0,0,1,.36,1.89,3.87,3.87,0,0,1-.41,1.83,1.11,1.11,0,0,1-1.11.62c-2.84-.23-4.26-.36-7.11-.67a1.6,1.6,0,0,1-1.36-1.07,8,8,0,0,1-.35-3c.23-9.57.35-14.35.58-23.92a7.54,7.54,0,0,1,.46-2.82q.4-.9,1-.84c.43,0,.77.4,1,1.06A7.87,7.87,0,0,1,260.2,594.94Z" transform="translate(1.9 -35.23)"/><path class="cls-10" d="M278,620.45c-.26-1.57-.4-2.36-.66-3.93-2.35-.07-3.53-.13-5.87-.26-.3,1.58-.45,2.37-.74,4a24.54,24.54,0,0,1-.73,3.11q-.3.79-1,.75c-.37,0-.69-.33-1-.93a4.54,4.54,0,0,1-.39-2,8.58,8.58,0,0,1,.11-1.31c.08-.44.19-1.06.36-1.86,1.59-8,2.38-12,3.93-20q.17-.86.39-2.07a19,19,0,0,1,.49-2,3.69,3.69,0,0,1,.66-1.27,1.16,1.16,0,0,1,1-.45,1.32,1.32,0,0,1,1,.54,4.32,4.32,0,0,1,.64,1.31,15.72,15.72,0,0,1,.4,1.7c.11.61.24,1.41.41,2.42,1.43,8.09,2.16,12.12,3.64,20.18a20.51,20.51,0,0,1,.44,3.34,4.78,4.78,0,0,1-.43,2c-.29.59-.63.89-1,.88a.85.85,0,0,1-.6-.28,2.24,2.24,0,0,1-.41-.74,9.47,9.47,0,0,1-.35-1.41C278.23,621.49,278.12,620.93,278,620.45Zm-5.71-8.88c1.72.09,2.58.13,4.29.19-.83-5.16-1.24-7.75-2.05-12.92C273.67,603.94,273.22,606.48,272.32,611.57Z" transform="translate(1.9 -35.23)"/><path class="cls-10" d="M288.92,611.93l-2.67,0c0,3.52,0,5.28,0,8.81a7.56,7.56,0,0,1-.41,2.86c-.28.65-.63,1-1.05,1s-.8-.33-1.07-1a7.68,7.68,0,0,1-.41-2.84c0-9.59,0-14.39,0-24a7.43,7.43,0,0,1,.44-3,1.44,1.44,0,0,1,1.39-.88c1.47,0,2.2,0,3.68,0a4.78,4.78,0,0,1,2.51.5,4.11,4.11,0,0,1,1.51,1.72,10.62,10.62,0,0,1,1,3,21.73,21.73,0,0,1,.36,4,15.57,15.57,0,0,1-1.3,7.26A4.39,4.39,0,0,1,288.92,611.93Zm-.74-14.25-1.94,0v9.5h2a3,3,0,0,0,1.71-.5,2.87,2.87,0,0,0,1-1.55,8.66,8.66,0,0,0,.35-2.79,8.46,8.46,0,0,0-.57-3.34A2.48,2.48,0,0,0,288.18,597.68Z" transform="translate(1.9 -35.23)"/><path class="cls-10" d="M304.32,619.81l-.75-3.85c-2.35.18-3.52.25-5.87.37l-.65,4a24.63,24.63,0,0,1-.66,3.19c-.19.55-.5.84-.94.86s-.7-.27-1-.83a4.42,4.42,0,0,1-.44-2,10,10,0,0,1,.09-1.32c.06-.46.17-1.09.31-1.9,1.42-8.14,2.12-12.21,3.49-20.37.09-.59.21-1.29.35-2.11a16.5,16.5,0,0,1,.44-2,4.08,4.08,0,0,1,.63-1.34,1.27,1.27,0,0,1,1-.56,1.17,1.17,0,0,1,1,.43,3.63,3.63,0,0,1,.66,1.24,12.37,12.37,0,0,1,.44,1.65c.13.6.28,1.39.47,2.38,1.61,7.92,2.42,11.87,4.08,19.76a18.43,18.43,0,0,1,.51,3.29,4.89,4.89,0,0,1-.39,2c-.26.62-.6.95-1,1a.7.7,0,0,1-.6-.22,1.81,1.81,0,0,1-.43-.68,10.05,10.05,0,0,1-.39-1.37C304.54,620.83,304.42,620.28,304.32,619.81Zm-5.9-8.25c1.72-.1,2.58-.15,4.29-.27-.94-5.08-1.41-7.61-2.33-12.69C299.6,603.79,299.21,606.38,298.42,611.56Z" transform="translate(1.9 -35.23)"/><path class="cls-10" d="M312.86,594.61c2.38,7.07,3.59,10.59,6,17.59-.21-7.38-.31-11.08-.52-18.47a8.27,8.27,0,0,1,.27-2.75c.22-.63.53-1,.93-1s.74.19,1,.75a7.6,7.6,0,0,1,.44,2.65l.75,24.42c.08,2.72-.4,4.16-1.46,4.32a1,1,0,0,1-.72-.15,1.94,1.94,0,0,1-.62-.69,7.43,7.43,0,0,1-.55-1.16l-.51-1.39c-2.4-6.94-3.58-10.43-5.92-17.42.17,7.28.25,10.92.42,18.2a7.31,7.31,0,0,1-.33,2.74c-.24.63-.56,1-1,1s-.75-.23-1-.82a7.15,7.15,0,0,1-.43-2.65c-.2-9.59-.29-14.38-.49-24a15.08,15.08,0,0,1,.1-2.42,4.55,4.55,0,0,1,.58-1.62,1.32,1.32,0,0,1,.9-.7.85.85,0,0,1,.67.21,2.18,2.18,0,0,1,.5.68,8.33,8.33,0,0,1,.45,1.16Z" transform="translate(1.9 -35.23)"/><path class="cls-10" d="M324.68,608c-.2-6-.29-9-.49-14.92a8.23,8.23,0,0,1,.29-2.93c.24-.67.57-1,1-1.12s.81.18,1.09.77a7.38,7.38,0,0,1,.5,2.79c.21,6.1.32,9.15.54,15.25a29.38,29.38,0,0,0,.43,4.3,5.51,5.51,0,0,0,1.06,2.54,1.93,1.93,0,0,0,2,.6,3.07,3.07,0,0,0,2.34-2.42,19.58,19.58,0,0,0,.46-6.08c-.25-6.14-.38-9.22-.63-15.36a8.34,8.34,0,0,1,.27-2.94c.23-.68.56-1.07,1-1.16s.79.15,1.08.72a7.29,7.29,0,0,1,.53,2.78l.65,14.89a48.23,48.23,0,0,1-.07,6.14,15.12,15.12,0,0,1-1.06,4.53,7.27,7.27,0,0,1-1.74,2.65,4.91,4.91,0,0,1-2.42,1.2,4.81,4.81,0,0,1-2.91-.24,4.46,4.46,0,0,1-2.05-2.05,12.81,12.81,0,0,1-1.26-4A43.57,43.57,0,0,1,324.68,608Z" transform="translate(1.9 -35.23)"/><path class="cls-10" d="M342.92,589.2c2.57,6.76,3.87,10.12,6.5,16.8l-1-18.37a8.3,8.3,0,0,1,.2-2.78c.2-.66.5-1.05.9-1.15s.75.09,1,.62a7.07,7.07,0,0,1,.51,2.59c.55,9.71.83,14.57,1.38,24.28q.22,4.06-1.35,4.5a1,1,0,0,1-.72-.05,1.81,1.81,0,0,1-.64-.61,7.94,7.94,0,0,1-.58-1.1l-.55-1.32c-2.57-6.62-3.85-10-6.36-16.64.35,7.25.53,10.87.89,18.12a7.81,7.81,0,0,1-.26,2.77c-.23.67-.54,1-.94,1.14s-.76-.13-1-.68a6.69,6.69,0,0,1-.5-2.59c-.45-9.55-.67-14.32-1.11-23.87a14,14,0,0,1,0-2.42,4.86,4.86,0,0,1,.53-1.7,1.54,1.54,0,0,1,.89-.81.78.78,0,0,1,.67.12,2.06,2.06,0,0,1,.52.62,8.85,8.85,0,0,1,.48,1.1Z" transform="translate(1.9 -35.23)"/><path class="cls-10" d="M368.12,597.1c.17,2.36.25,3.54.42,5.89a14,14,0,0,1,0,1.92,5,5,0,0,1-.3,1.4,8.06,8.06,0,0,1-.67,1.35,14.83,14.83,0,0,1-2.36,3.05,6.67,6.67,0,0,1-2.59,1.55,4.08,4.08,0,0,1-3.1-.14,6.07,6.07,0,0,1-2.53-2.47,16.55,16.55,0,0,1-1.78-4.61,36.16,36.16,0,0,1-.9-6.48,42.61,42.61,0,0,1,.1-6.73,24.1,24.1,0,0,1,1.14-5.5,12.2,12.2,0,0,1,2.12-3.88,6.58,6.58,0,0,1,3-2.08,3.68,3.68,0,0,1,2.56,0,4.44,4.44,0,0,1,1.92,1.49,8.78,8.78,0,0,1,1.22,2.31,9.58,9.58,0,0,1,.52,2.38,5.32,5.32,0,0,1-.26,2.14,1.74,1.74,0,0,1-.9,1.16.65.65,0,0,1-.62-.12,1.78,1.78,0,0,1-.54-.72c-.43-1.08-.8-1.89-1.08-2.43a3.25,3.25,0,0,0-1.09-1.22,1.82,1.82,0,0,0-1.63-.12,3.44,3.44,0,0,0-1.72,1.3,8.25,8.25,0,0,0-1.2,2.58,18.5,18.5,0,0,0-.63,3.74,32.69,32.69,0,0,0,0,4.65c.22,3.62.77,6.29,1.67,8s2,2.35,3.42,1.9a4.46,4.46,0,0,0,1.86-1.18,12.36,12.36,0,0,0,1.69-2.21c-.14-2-.21-3-.34-5l-2.24.75a1.25,1.25,0,0,1-1.26-.13,2.39,2.39,0,0,1-.53-1.65,4.22,4.22,0,0,1,.23-1.82,1.5,1.5,0,0,1,.89-1c1.31-.43,2-.64,3.27-1.09a2.07,2.07,0,0,1,1-.11c.29,0,.53.32.74.79A7.23,7.23,0,0,1,368.12,597.1Z" transform="translate(1.9 -35.23)"/><path class="cls-10" d="M383.6,591.2l.5,5.86a14.56,14.56,0,0,1,0,1.91,5.68,5.68,0,0,1-.29,1.43,8.53,8.53,0,0,1-.65,1.38,16.09,16.09,0,0,1-2.32,3.21,7.4,7.4,0,0,1-2.57,1.72,4.1,4.1,0,0,1-3.11.06,5.59,5.59,0,0,1-2.56-2.3,15.61,15.61,0,0,1-1.84-4.49,34.71,34.71,0,0,1-1-6.42,42,42,0,0,1,0-6.74,24.5,24.5,0,0,1,1.07-5.56,12.83,12.83,0,0,1,2.07-4,7.06,7.06,0,0,1,3-2.27,3.68,3.68,0,0,1,2.57-.16,4.08,4.08,0,0,1,1.94,1.37,7.92,7.92,0,0,1,1.24,2.23,8.8,8.8,0,0,1,.56,2.34,5.38,5.38,0,0,1-.23,2.15,1.84,1.84,0,0,1-.89,1.22.66.66,0,0,1-.62-.07,1.6,1.6,0,0,1-.55-.69,25.53,25.53,0,0,0-1.11-2.35,3,3,0,0,0-1.11-1.16,1.82,1.82,0,0,0-1.63,0,3.71,3.71,0,0,0-1.71,1.42,8.7,8.7,0,0,0-1.16,2.65,19.24,19.24,0,0,0-.59,3.78,34.71,34.71,0,0,0,.05,4.65q.4,5.4,1.78,7.89T378,601.9a4.89,4.89,0,0,0,1.85-1.31,13.53,13.53,0,0,0,1.66-2.32l-.41-5-2.23.89a1.22,1.22,0,0,1-1.26-.05,2.3,2.3,0,0,1-.56-1.62,4.41,4.41,0,0,1,.21-1.82,1.6,1.6,0,0,1,.88-1l3.26-1.31a2.06,2.06,0,0,1,1-.18c.29,0,.55.29.76.74A7.14,7.14,0,0,1,383.6,591.2Z" transform="translate(1.9 -35.23)"/><path class="cls-10" d="M395.5,595.27c-.42-1.4-.63-2.1-1-3.51-2.31,1.07-3.47,1.59-5.79,2.6-.13,1.68-.2,2.52-.33,4.21a27.94,27.94,0,0,1-.41,3.39,1.58,1.58,0,0,1-.86,1.19c-.37.16-.72,0-1.05-.44a3.41,3.41,0,0,1-.58-1.76,9.83,9.83,0,0,1,0-1.34c0-.47.09-1.13.17-2,.78-8.55,1.15-12.83,1.88-21.38l.18-2.22c.08-.86.17-1.59.28-2.19a5.5,5.5,0,0,1,.53-1.56,1.93,1.93,0,0,1,.93-.92,1,1,0,0,1,1,0,2.48,2.48,0,0,1,.75,1,10,10,0,0,1,.56,1.47c.17.54.38,1.26.65,2.16,2.2,7.19,3.31,10.78,5.56,17.93a16.15,16.15,0,0,1,.75,3,5.42,5.42,0,0,1-.22,2.14,2.09,2.09,0,0,1-.92,1.36.66.66,0,0,1-.61,0,1.32,1.32,0,0,1-.48-.51,8.08,8.08,0,0,1-.48-1.21C395.79,596.2,395.63,595.7,395.5,595.27ZM389,589.38c1.7-.74,2.55-1.12,4.24-1.89-1.32-4.64-2-7-3.29-11.62C389.59,581.27,389.4,584,389,589.38Z" transform="translate(1.9 -35.23)"/><path class="cls-10" d="M401.11,567.7l2.25,22.1c2.33-1.17,3.5-1.77,5.83-3a.85.85,0,0,1,1.15.16,3,3,0,0,1,.57,1.62,4.64,4.64,0,0,1-.18,2,2.08,2.08,0,0,1-1,1.26c-2.79,1.46-4.18,2.17-7,3.55-.63.31-1.12.24-1.45-.22a5.86,5.86,0,0,1-.7-2.68c-.93-9.36-1.4-14-2.32-23.4a8.8,8.8,0,0,1,.1-3,2.07,2.07,0,0,1,.92-1.43c.42-.21.8-.07,1.12.42A6,6,0,0,1,401.11,567.7Z" transform="translate(1.9 -35.23)"/></svg>